#!OML:ASF H:\Terrain\Patient Classification 1\Walking\steve\steve.ASF
:FULLY-SPECIFIED
:DEGREES
76
root 6.65856 15.5824 -32.9775 6.05999 -6.49845 1.09963
lowerback -1.75815 3.7705 -1.45452
upperback -2.64614 5.01729 -1.5516
thorax -1.7173 2.51963 -0.767686
lowerneck -9.63223 -0.202988 -3.10544
upperneck 18.2921 -0.523098 4.15351
head 7.19996 -0.0908242 1.82139
rclavicle 2.72863e-014 -1.78906e-015
rhumerus -41.6035 -8.49682 -84.1016
rradius 25.898
rwrist 2.06287
rhand -22.7965 -38.1033
rfingers 7.12502
rthumb 3.63959 -68.0519
lclavicle 2.72863e-014 -1.78906e-015
lhumerus -41.0975 20.7855 70.7892
lradius 19.4665
lwrist 4.60081
lhand -23.8923 -11.3289
lfingers 7.12502
lthumb 2.58137 18.6353
rfemur -16.443 3.66398 19.2971
rtibia 66.859
rfoot -1.57023 5.61949
rtoes -2.47221
lfemur -23.9607 -1.55069 -23.4607
ltibia 32.1486
lfoot -14.6134 2.59769
ltoes 1.84697
77
root 6.66986 15.5971 -32.8173 6.02982 -6.69603 1.41866
lowerback -2.0125 3.67875 -1.72521
upperback -2.62942 4.90265 -1.58416
thorax -1.57816 2.46618 -0.632855
lowerneck -9.53438 -0.0960734 -2.83754
upperneck 18.2991 -0.375023 3.8898
head 7.17876 -0.0259804 1.70346
rclavicle 9.28697e-014 -2.38542e-015
rhumerus -42.3812 -8.78001 -84.082
rradius 25.8002
rwrist 1.68391
rhand -24.5392 -40.5681
rfingers 7.12502
rthumb 1.95662 -70.5389
lclavicle 9.28697e-014 -2.38542e-015
lhumerus -39.8464 20.1951 71.8261
lradius 19.553
lwrist 5.56823
lhand -23.0562 -12.7643
lfingers 7.12502
lthumb 3.38879 17.1885
rfemur -17.7536 3.47494 19.0009
rtibia 67.0694
rfoot -3.17417 5.83059
rtoes -4.06359
lfemur -23.257 -1.295 -24.0482
ltibia 32.0894
lfoot -15.1997 2.86917
ltoes -0.225487
78
root 6.6824 15.6072 -32.6726 6.00921 -6.93579 1.52505
lowerback -1.99686 3.64825 -1.76803
upperback -2.70102 4.86063 -1.54634
thorax -1.66732 2.44677 -0.575395
lowerneck -9.76039 0.0992584 -2.62559
upperneck 18.8258 -0.133359 3.80005
head 7.38173 0.0998701 1.66703
rclavicle -1.06931e-014 -1.88845e-014
rhumerus -43.204 -9.37449 -83.5972
rradius 25.5669
rwrist 2.04359
rhand -23.5738 -40.3231
rfingers 7.12502
rthumb 2.88893 -70.2833
lclavicle -1.06931e-014 -1.88845e-014
lhumerus -38.7973 20.0303 72.5969
lradius 19.7227
lwrist 5.80051
lhand -22.5409 -14.7851
lfingers 7.12502
lthumb 3.88647 15.1593
rfemur -19.2249 3.57623 19.0448
rtibia 67.1677
rfoot -4.63391 5.96264
rtoes -5.83175
lfemur -22.5511 -1.10416 -24.3559
ltibia 31.9206
lfoot -15.7039 2.96818
ltoes -0.818008
79
root 6.68992 15.6159 -32.5379 6.0011 -7.04649 1.35596
lowerback -1.94024 3.53357 -1.60025
upperback -2.75169 4.70625 -1.36088
thorax -1.75221 2.36887 -0.485523
lowerneck -9.92837 0.252494 -2.76867
upperneck 19.3741 0.0817167 3.86358
head 7.58321 0.200739 1.73899
rclavicle -3.89338e-014 -7.95139e-015
rhumerus -43.8907 -9.0818 -83.7381
rradius 24.8413
rwrist -1.07846
rhand -25.1979 -34.3698
rfingers 7.12502
rthumb 1.32041 -64.3455
lclavicle -3.89338e-014 -7.95139e-015
lhumerus -37.7229 20.1198 73.3295
lradius 19.8614
lwrist 5.85067
lhand -22.3206 -13.8758
lfingers 7.12502
lthumb 4.09915 16.0645
rfemur -20.6485 3.79618 19.4881
rtibia 67.1138
rfoot -6.78284 5.568
rtoes -7.37981
lfemur -21.8404 -1.19178 -24.2557
ltibia 31.6693
lfoot -16.3336 3.07323
ltoes -0.772287
80
root 6.69208 15.6207 -32.394 5.79129 -7.148 1.47125
lowerback -1.83921 3.32142 -1.78433
upperback -2.72211 4.42428 -1.18887
thorax -1.80468 2.23296 -0.214563
lowerneck -9.81592 0.405116 -2.95524
upperneck 19.5195 0.34006 3.76193
head 7.60101 0.299829 1.76185
rclavicle 7.10267e-015 6.16232e-015
rhumerus -44.5154 -9.49652 -83.139
rradius 24.0755
rwrist -1.37258
rhand -24.2896 -31.222
rfingers 7.12502
rthumb 2.19768 -61.1904
lclavicle 7.10267e-015 6.16232e-015
lhumerus -36.7282 19.1868 74.6549
lradius 20.5384
lwrist 7.2622
lhand -22.8599 -11.735
lfingers 7.12502
lthumb 3.57837 18.2147
rfemur -21.7756 3.88922 19.5926
rtibia 66.9414
rfoot -9.02798 5.23459
rtoes -7.86468
lfemur -20.8834 -1.23911 -24.4721
ltibia 31.415
lfoot -17.0873 3.12129
ltoes -1.09641
81
root 6.69853 15.61 -32.2492 5.34159 -7.14348 1.9875
lowerback -1.49018 3.10915 -2.28052
upperback -2.65093 4.13456 -1.15196
thorax -1.96248 2.09801 0.0786825
lowerneck -9.57951 0.568533 -2.96884
upperneck 19.3987 0.613643 3.51395
head 7.51009 0.404524 1.70434
rclavicle -7.57036e-014 -2.88238e-015
rhumerus -45.1977 -10.1049 -82.34
rradius 23.4859
rwrist -0.966029
rhand -24.1762 -31.0792
rfingers 7.12502
rthumb 2.30723 -61.0465
lclavicle -7.57036e-014 -2.88238e-015
lhumerus -35.7338 18.581 75.7459
lradius 21.0616
lwrist 8.30758
lhand -23.6259 -11.3761
lfingers 7.12502
lthumb 2.83863 18.5848
rfemur -22.6503 3.65627 19.2233
rtibia 66.6827
rfoot -10.4999 5.33071
rtoes -8.52808
lfemur -19.6635 -1.42497 -25.1455
ltibia 31.1486
lfoot -17.7792 2.92627
ltoes -0.456623
82
root 6.71108 15.5963 -32.1097 5.0053 -6.98615 2.33301
lowerback -1.20624 2.92224 -2.52516
upperback -2.54141 3.87877 -1.11845
thorax -2.02293 1.97471 0.237523
lowerneck -9.49582 0.627025 -3.07569
upperneck 19.2056 0.740308 3.37836
head 7.42783 0.444389 1.68604
rclavicle -5.00107e-015 1.40143e-014
rhumerus -45.8484 -10.971 -81.3549
rradius 23.1263
rwrist 0.110994
rhand -23.9732 -31.6742
rfingers 7.12502
rthumb 2.50323 -61.6393
lclavicle -5.00107e-015 1.40143e-014
lhumerus -34.5342 18.8568 76.3854
lradius 21.2552
lwrist 8.08522
lhand -23.6502 -11.7887
lfingers 7.12502
lthumb 2.81522 18.1725
rfemur -23.601 3.21409 19.0558
rtibia 66.3038
rfoot -11.5513 4.99253
rtoes -8.1591
lfemur -18.6351 -1.64953 -25.6476
ltibia 30.9454
lfoot -18.2729 2.62717
ltoes 1.18809
83
root 6.7194 15.5822 -31.9694 4.88865 -6.92581 2.2351
lowerback -1.02978 2.783 -2.44163
upperback -2.52431 3.69033 -0.953054
thorax -2.10516 1.88126 0.353023
lowerneck -9.57037 0.618265 -3.24092
upperneck 19.2421 0.771039 3.31191
head 7.45186 0.441224 1.69573
rclavicle 9.8709e-015 -5.46658e-015
rhumerus -46.6156 -12.0932 -80.011
rradius 22.7563
rwrist 2.20259
rhand -22.6006 -31.7952
rfingers 7.12502
rthumb 3.82882 -61.7406
lclavicle 9.8709e-015 -5.46658e-015
lhumerus -33.5361 18.0713 77.4389
lradius 22.1216
lwrist 8.70259
lhand -23.4788 -11.6378
lfingers 7.12502
lthumb 2.98067 18.3211
rfemur -24.6938 2.86022 19.4649
rtibia 65.8513
rfoot -13.1151 3.66074
rtoes -10.419
lfemur -17.8747 -1.70428 -25.6375
ltibia 30.8565
lfoot -18.7895 2.11348
ltoes 2.97794
84
root 6.72491 15.5643 -31.8293 4.7417 -7.0176 2.11519
lowerback -0.759893 2.6684 -2.30203
upperback -2.57109 3.53072 -0.837863
thorax -2.29926 1.80175 0.379587
lowerneck -9.57525 0.719083 -3.01774
upperneck 19.4316 0.915534 3.07134
head 7.51271 0.503465 1.59497
rclavicle 5.38103e-014 -3.27498e-014
rhumerus -47.4001 -12.595 -79.2354
rradius 22.3582
rwrist 2.79714
rhand -22.3624 -31.439
rfingers 7.12502
rthumb 4.05885 -61.38
lclavicle 5.38103e-014 -3.27498e-014
lhumerus -32.551 16.9355 78.437
lradius 22.8038
lwrist 9.84256
lhand -23.6037 -11.3636
lfingers 7.12502
lthumb 2.86006 18.597
rfemur -25.7908 2.74614 19.9042
rtibia 65.2946
rfoot -14.9519 2.48747
rtoes -16.8364
lfemur -17.1455 -1.62525 -25.6087
ltibia 30.8278
lfoot -18.9987 1.74648
ltoes 3.39388
85
root 6.73145 15.5531 -31.6882 4.54644 -7.08177 2.31493
lowerback -0.478133 2.51051 -2.40092
upperback -2.58851 3.30986 -0.851736
thorax -2.47494 1.6946 0.40947
lowerneck -9.47346 0.811679 -2.72745
upperneck 19.3852 1.04904 2.77068
head 7.47903 0.55982 1.45845
rclavicle 2.04484e-014 -1.17376e-014
rhumerus -48.183 -12.9528 -78.6577
rradius 22.1238
rwrist 2.89259
rhand -22.5469 -31.2393
rfingers 7.12502
rthumb 3.88065 -61.1837
lclavicle 2.04484e-014 -1.17376e-014
lhumerus -31.3873 15.6284 79.3509
lradius 22.9609
lwrist 11.524
lhand -23.5909 -12.1549
lfingers 7.12502
lthumb 2.87245 17.8055
rfemur -26.9605 2.92552 19.834
rtibia 64.5903
rfoot -16.1748 2.8032
rtoes -17.5506
lfemur -16.3609 -1.51989 -25.9683
ltibia 30.7167
lfoot -18.8276 1.88254
ltoes 2.25288
86
root 6.73656 15.5411 -31.5383 4.27746 -7.27679 2.64546
lowerback -0.350593 2.43087 -2.70322
upperback -2.49437 3.19861 -0.822355
thorax -2.46569 1.64487 0.606463
lowerneck -9.41376 0.856485 -2.85778
upperneck 19.2603 1.13423 2.76142
head 7.42413 0.590127 1.4828
rclavicle -2.30621e-014 2.38542e-015
rhumerus -49.0099 -13.7107 -77.4579
rradius 22.0577
rwrist 4.21173
rhand -21.4398 -31.7682
rfingers 7.12502
rthumb 4.94973 -61.6904
lclavicle -2.30621e-014 2.38542e-015
lhumerus -30.2396 14.9513 80.0269
lradius 23.3264
lwrist 11.6062
lhand -23.5383 -12.3874
lfingers 7.12502
lthumb 2.92326 17.5723
rfemur -27.9979 3.37584 19.5439
rtibia 63.7669
rfoot -16.7352 3.61073
rtoes -13.0916
lfemur -15.3108 -1.41064 -26.467
ltibia 30.434
lfoot -19.101 1.8793
ltoes 2.09633
